<?xml version="1.0" encoding="UTF-8" standalone="no"?>
<!DOCTYPE svg PUBLIC "-//W3C//DTD SVG 1.1//EN"
 "http://www.w3.org/Graphics/SVG/1.1/DTD/svg11.dtd">
<!-- Generated by graphviz version 7.0.1 (20221109.1506)
 -->
<!-- Pages: 1 -->
<svg width="592pt" height="106pt"
 viewBox="0.00 0.00 592.47 106.00" xmlns="http://www.w3.org/2000/svg" xmlns:xlink="http://www.w3.org/1999/xlink">
<g id="graph0" class="graph" transform="scale(1 1) rotate(0) translate(4 102)">
<polygon fill="white" stroke="none" points="-4,4 -4,-102 588.47,-102 588.47,4 -4,4"/>
<!-- biohackrxiv -->
<g id="node1" class="node">
<title>biohackrxiv</title>
<ellipse fill="none" stroke="black" cx="443.43" cy="-80" rx="141.07" ry="18"/>
<text text-anchor="middle" x="443.43" y="-76.3" font-family="Times,serif" font-size="14.00">BioHackrXiv preview server</text>
</g>
<!-- user -->
<g id="node2" class="node">
<title>user</title>
<ellipse fill="none" stroke="black" cx="31.2" cy="-51" rx="31.4" ry="18"/>
<text text-anchor="middle" x="31.2" y="-47.3" font-family="Times,serif" font-size="14.00">user</text>
</g>
<!-- biohackrxiv&#45;&gt;user -->
<g id="edge2" class="edge">
<title>biohackrxiv&#45;&gt;user</title>
<path fill="none" stroke="black" d="M377.14,-63.73C348.83,-57.47 315.17,-51.08 284.39,-48 194.18,-38.96 171.02,-45.18 80.39,-48 78.35,-48.06 76.25,-48.14 74.13,-48.23"/>
<polygon fill="black" stroke="black" points="74.1,-44.73 64.29,-48.73 74.46,-51.72 74.1,-44.73"/>
<text text-anchor="middle" x="182.39" y="-51.8" font-family="Times,serif" font-size="14.00">PDF paper</text>
</g>
<!-- user&#45;&gt;biohackrxiv -->
<g id="edge1" class="edge">
<title>user&#45;&gt;biohackrxiv</title>
<path fill="none" stroke="black" d="M57.86,-61.02C65.04,-63.41 72.93,-65.66 80.39,-67 150.03,-79.54 228.37,-83.57 294.32,-84.15"/>
<polygon fill="black" stroke="black" points="294.1,-87.65 304.13,-84.21 294.15,-80.65 294.1,-87.65"/>
<text text-anchor="middle" x="182.39" y="-86.8" font-family="Times,serif" font-size="14.00">git repository or ZIP archive</text>
</g>
<!-- osf -->
<g id="node3" class="node">
<title>osf</title>
<ellipse fill="none" stroke="black" cx="443.43" cy="-18" rx="109.68" ry="18"/>
<text text-anchor="middle" x="443.43" y="-14.3" font-family="Times,serif" font-size="14.00">OSF preprints server</text>
</g>
<!-- user&#45;&gt;osf -->
<g id="edge3" class="edge">
<title>user&#45;&gt;osf</title>
<path fill="none" stroke="black" d="M60.05,-43.13C66.67,-41.52 73.75,-40.01 80.39,-39 160.6,-26.8 251.79,-21.56 322.58,-19.37"/>
<polygon fill="black" stroke="black" points="322.36,-22.87 332.25,-19.08 322.15,-15.88 322.36,-22.87"/>
<text text-anchor="middle" x="158.2" y="-14.87" font-family="Times,serif" font-size="14.00">PDF paper</text>
</g>
</g>
</svg>
