<?xml version="1.0" encoding="UTF-8" standalone="no"?>
<!DOCTYPE svg PUBLIC "-//W3C//DTD SVG 1.1//EN"
 "http://www.w3.org/Graphics/SVG/1.1/DTD/svg11.dtd">
<!-- Generated by graphviz version 7.0.1 (20221109.1506)
 -->
<!-- Pages: 1 -->
<svg width="557pt" height="131pt"
 viewBox="0.00 0.00 556.88 131.00" xmlns="http://www.w3.org/2000/svg" xmlns:xlink="http://www.w3.org/1999/xlink">
<g id="graph0" class="graph" transform="scale(1 1) rotate(0) translate(4 127)">
<polygon fill="white" stroke="none" points="-4,4 -4,-127 552.88,-127 552.88,4 -4,4"/>
<!-- biohackrxiv -->
<g id="node1" class="node">
<title>biohackrxiv</title>
<ellipse fill="none" stroke="black" cx="141.04" cy="-105" rx="141.07" ry="18"/>
<text text-anchor="middle" x="141.04" y="-101.3" font-family="Times,serif" font-size="14.00">BioHackrXiv preview server</text>
</g>
<!-- user -->
<g id="node3" class="node">
<title>user</title>
<ellipse fill="none" stroke="black" cx="212.04" cy="-18" rx="31.4" ry="18"/>
<text text-anchor="middle" x="212.04" y="-14.3" font-family="Times,serif" font-size="14.00">user</text>
</g>
<!-- biohackrxiv&#45;&gt;user -->
<g id="edge2" class="edge">
<title>biohackrxiv&#45;&gt;user</title>
<path fill="none" stroke="black" d="M119.28,-87.04C109.36,-77.22 101.36,-64.72 109.04,-54 122.81,-34.78 147.74,-25.99 169.62,-22.02"/>
<polygon fill="black" stroke="black" points="169.85,-25.53 179.22,-20.58 168.81,-18.6 169.85,-25.53"/>
<text text-anchor="middle" x="147.54" y="-57.8" font-family="Times,serif" font-size="14.00">PDF paper</text>
</g>
<!-- osf -->
<g id="node2" class="node">
<title>osf</title>
<ellipse fill="none" stroke="black" cx="439.04" cy="-105" rx="109.68" ry="18"/>
<text text-anchor="middle" x="439.04" y="-101.3" font-family="Times,serif" font-size="14.00">OSF preprints server</text>
</g>
<!-- user&#45;&gt;biohackrxiv -->
<g id="edge1" class="edge">
<title>user&#45;&gt;biohackrxiv</title>
<path fill="none" stroke="black" d="M207.11,-35.99C203.54,-46.3 197.93,-59.29 190.04,-69 186.84,-72.94 183.08,-76.64 179.11,-80.06"/>
<polygon fill="black" stroke="black" points="177.08,-77.21 171.36,-86.13 181.39,-82.72 177.08,-77.21"/>
<text text-anchor="middle" x="300.04" y="-57.8" font-family="Times,serif" font-size="14.00">git repository or ZIP archive</text>
</g>
<!-- user&#45;&gt;osf -->
<g id="edge3" class="edge">
<title>user&#45;&gt;osf</title>
<path fill="none" stroke="black" d="M243.2,-21.64C291.03,-26.17 379.75,-36.67 406.04,-54 414.65,-59.68 421.54,-68.46 426.75,-77.09"/>
<polygon fill="black" stroke="black" points="423.54,-78.51 431.38,-85.63 429.69,-75.17 423.54,-78.51"/>
<text text-anchor="middle" x="459.54" y="-57.8" font-family="Times,serif" font-size="14.00">PDF paper</text>
</g>
</g>
</svg>
