<?xml version="1.0" encoding="UTF-8" standalone="no"?>
<!DOCTYPE svg PUBLIC "-//W3C//DTD SVG 1.1//EN"
 "http://www.w3.org/Graphics/SVG/1.1/DTD/svg11.dtd">
<!-- Generated by graphviz version 7.0.1 (20221109.1506)
 -->
<!-- Pages: 1 -->
<svg width="437pt" height="218pt"
 viewBox="0.00 0.00 436.84 218.00" xmlns="http://www.w3.org/2000/svg" xmlns:xlink="http://www.w3.org/1999/xlink">
<g id="graph0" class="graph" transform="scale(1 1) rotate(0) translate(4 214)">
<polygon fill="white" stroke="none" points="-4,4 -4,-214 432.84,-214 432.84,4 -4,4"/>
<!-- biohackrxiv -->
<g id="node1" class="node">
<title>biohackrxiv</title>
<ellipse fill="none" stroke="black" cx="195.84" cy="-105" rx="68.49" ry="18"/>
<text text-anchor="middle" x="195.84" y="-101.3" font-family="Times,serif" font-size="14.00">BioHackrXiv</text>
</g>
<!-- osf -->
<g id="node2" class="node">
<title>osf</title>
<ellipse fill="none" stroke="black" cx="109.84" cy="-192" rx="109.68" ry="18"/>
<text text-anchor="middle" x="109.84" y="-188.3" font-family="Times,serif" font-size="14.00">OSF preprints server</text>
</g>
<!-- biohackrxiv&#45;&gt;osf -->
<g id="edge3" class="edge">
<title>biohackrxiv&#45;&gt;osf</title>
<path fill="none" stroke="black" d="M178.76,-122.89C166.28,-135.22 149.16,-152.14 135.11,-166.03"/>
<polygon fill="black" stroke="black" points="132.97,-163.22 128.32,-172.74 137.89,-168.19 132.97,-163.22"/>
<text text-anchor="middle" x="189.34" y="-144.8" font-family="Times,serif" font-size="14.00">OSF API</text>
</g>
<!-- zenodo -->
<g id="node3" class="node">
<title>zenodo</title>
<ellipse fill="none" stroke="black" cx="282.84" cy="-192" rx="44.69" ry="18"/>
<text text-anchor="middle" x="282.84" y="-188.3" font-family="Times,serif" font-size="14.00">Zenodo</text>
</g>
<!-- biohackrxiv&#45;&gt;zenodo -->
<g id="edge4" class="edge">
<title>biohackrxiv&#45;&gt;zenodo</title>
<path fill="none" stroke="black" d="M213.02,-122.79C226,-135.46 243.97,-153.02 258.43,-167.15"/>
<polygon fill="black" stroke="black" points="255.79,-169.47 265.39,-173.95 260.69,-164.46 255.79,-169.47"/>
<text text-anchor="middle" x="284.84" y="-144.8" font-family="Times,serif" font-size="14.00">Zenodo API</text>
</g>
<!-- user -->
<g id="node4" class="node">
<title>user</title>
<ellipse fill="none" stroke="black" cx="195.84" cy="-18" rx="31.4" ry="18"/>
<text text-anchor="middle" x="195.84" y="-14.3" font-family="Times,serif" font-size="14.00">user</text>
</g>
<!-- biohackrxiv&#45;&gt;user -->
<g id="edge2" class="edge">
<title>biohackrxiv&#45;&gt;user</title>
<path fill="none" stroke="black" d="M162.16,-88.88C154.44,-83.73 147.23,-77.16 142.84,-69 135.63,-55.6 146.89,-43.76 160.86,-34.97"/>
<polygon fill="black" stroke="black" points="162.45,-38.09 169.45,-30.13 159.02,-31.99 162.45,-38.09"/>
<text text-anchor="middle" x="181.34" y="-57.8" font-family="Times,serif" font-size="14.00">PDF paper</text>
</g>
<!-- user&#45;&gt;biohackrxiv -->
<g id="edge1" class="edge">
<title>user&#45;&gt;biohackrxiv</title>
<path fill="none" stroke="black" d="M211.86,-33.67C220.37,-43.31 228.25,-56.42 223.84,-69 222.75,-72.1 221.26,-75.13 219.54,-78.02"/>
<polygon fill="black" stroke="black" points="216.78,-75.86 213.84,-86.04 222.49,-79.91 216.78,-75.86"/>
<text text-anchor="middle" x="326.84" y="-57.8" font-family="Times,serif" font-size="14.00">git repository or ZIP archive</text>
</g>
</g>
</svg>
