<?xml version="1.0" encoding="UTF-8" standalone="no"?>
<!DOCTYPE svg PUBLIC "-//W3C//DTD SVG 1.1//EN"
 "http://www.w3.org/Graphics/SVG/1.1/DTD/svg11.dtd">
<!-- Generated by graphviz version 7.0.1 (20221109.1506)
 -->
<!-- Pages: 1 -->
<svg width="785pt" height="144pt"
 viewBox="0.00 0.00 784.56 143.54" xmlns="http://www.w3.org/2000/svg" xmlns:xlink="http://www.w3.org/1999/xlink">
<g id="graph0" class="graph" transform="scale(1 1) rotate(0) translate(4 139.54)">
<polygon fill="white" stroke="none" points="-4,4 -4,-139.54 780.56,-139.54 780.56,4 -4,4"/>
<!-- biohackrxiv -->
<g id="node1" class="node">
<title>biohackrxiv</title>
<ellipse fill="none" stroke="black" cx="370.64" cy="-59.54" rx="68.49" ry="18"/>
<text text-anchor="middle" x="370.64" y="-55.84" font-family="Times,serif" font-size="14.00">BioHackrXiv</text>
</g>
<!-- osf -->
<g id="node2" class="node">
<title>osf</title>
<ellipse fill="none" stroke="black" cx="666.72" cy="-86.54" rx="109.68" ry="18"/>
<text text-anchor="middle" x="666.72" y="-82.84" font-family="Times,serif" font-size="14.00">OSF preprints server</text>
</g>
<!-- biohackrxiv&#45;&gt;osf -->
<g id="edge3" class="edge">
<title>biohackrxiv&#45;&gt;osf</title>
<path fill="none" stroke="black" d="M435.81,-65.43C471.73,-68.73 517.44,-72.93 558.63,-76.71"/>
<polygon fill="black" stroke="black" points="558.04,-80.17 568.32,-77.6 558.68,-73.2 558.04,-80.17"/>
<text text-anchor="middle" x="497.88" y="-78.34" font-family="Times,serif" font-size="14.00">OSF API</text>
</g>
<!-- zenodo -->
<g id="node3" class="node">
<title>zenodo</title>
<ellipse fill="none" stroke="black" cx="666.72" cy="-32.54" rx="44.69" ry="18"/>
<text text-anchor="middle" x="666.72" y="-28.84" font-family="Times,serif" font-size="14.00">Zenodo</text>
</g>
<!-- biohackrxiv&#45;&gt;zenodo -->
<g id="edge4" class="edge">
<title>biohackrxiv&#45;&gt;zenodo</title>
<path fill="none" stroke="black" d="M432.13,-51.34C440.44,-50.33 448.87,-49.36 456.88,-48.54 508.96,-43.19 568.51,-38.8 610.66,-35.98"/>
<polygon fill="black" stroke="black" points="610.81,-39.47 620.55,-35.32 610.35,-32.49 610.81,-39.47"/>
<text text-anchor="middle" x="497.88" y="-52.34" font-family="Times,serif" font-size="14.00">Zenodo API</text>
</g>
<!-- user -->
<g id="node4" class="node">
<title>user</title>
<ellipse fill="none" stroke="black" cx="31.2" cy="-75.54" rx="31.4" ry="18"/>
<text text-anchor="middle" x="31.2" y="-71.84" font-family="Times,serif" font-size="14.00">user</text>
</g>
<!-- biohackrxiv&#45;&gt;user -->
<g id="edge2" class="edge">
<title>biohackrxiv&#45;&gt;user:se</title>
<path fill="none" stroke="black" d="M331.24,-44.5C265.93,-21.62 132.86,12.81 56.33,-52.05"/>
<polygon fill="black" stroke="black" points="54.3,-49.17 49.31,-58.52 59.04,-54.32 54.3,-49.17"/>
<text text-anchor="middle" x="152.91" y="-3.8" font-family="Times,serif" font-size="14.00">PDF paper</text>
</g>
<!-- user&#45;&gt;biohackrxiv -->
<g id="edge1" class="edge">
<title>user&#45;&gt;biohackrxiv:nw</title>
<path fill="none" stroke="black" d="M57.45,-85.92C116.07,-108.21 262.61,-153.27 344.44,-84.08"/>
<polygon fill="black" stroke="black" points="346.53,-86.91 351.52,-77.57 341.8,-81.76 346.53,-86.91"/>
<text text-anchor="middle" x="182.39" y="-124.34" font-family="Times,serif" font-size="14.00">git repository or ZIP archive</text>
</g>
</g>
</svg>
